# xmcd
# 
# Track frame offsets:
#     150
#     20566
#     37131
#     56074
#     74086
#     92555
#     110676
#     127605
#     143234
#     160370
#     180753
#     196167
# 
# Disc length: 2928
# 
# Revision: 0
# Processed by: cddbd v1.5.2PL0 Copyright (c) Steve Scherf et al.
# Submitted via: fre:ac v1.0.31
# 
DISCID=a50b6e0c
DTITLE=Max Gazzè - Quindi?
DYEAR=2010
DGENRE=
TTITLE0=Io dove'ero (Atmos 5)
TTITLE1=A cuore scalzo
TTITLE2=La cosa più importante
TTITLE3=Senza coda (Autonomie)
TTITLE4=Il drago che ti adora
TTITLE5=Mentre dormi
TTITLE6=Storie crudeli (Non c'è ragione per raccontare)
TTITLE7=La moglie del poeta
TTITLE8=Nuovi allineamenti di Stonehenge
TTITLE9=Impercettibili
TTITLE10=Edera
TTITLE11=DNA (Desossiribonucleico)
EXTD=
EXTT0=
EXTT1=
EXTT2=
EXTT3=
EXTT4=
EXTT5=
EXTT6=
EXTT7=
EXTT8=
EXTT9=
EXTT10=
EXTT11=
PLAYORDER=
